<svg id="Layer_1" data-name="Layer 1" xmlns="http://www.w3.org/2000/svg" viewBox="0 0 800 800"><defs><style>.cls-1{fill:#44b9b3;}.cls-2{fill:#1e1c3c;}</style></defs><path class="cls-1" d="M412.31,416.81l-.87,9c-1.58-1-8.18-3-13.39-3-3.74,0-6.76,1-6.76,3.93,0,2.7,2.57,3.38,5.08,4.09l6.25,1.8c8.05,2.32,12,5.63,12,12.52,0,8-6.76,13.52-17.42,13.52-6.43,0-13.64-1.8-16.51-3.41l.84-9.3c1.09,1.19,8.91,3.44,14.93,3.44,4,0,7.28-1,7.28-3.89,0-2-1.39-3.06-4.57-3.9L392.38,440c-5.82-1.9-11.94-4.76-11.94-12.61,0-8.15,6.83-13.59,17.16-13.59A33,33,0,0,1,412.31,416.81Z"/><path class="cls-1" d="M441.48,413.75c13.74,0,23.17,9.24,23.17,22.47s-9.43,22.53-23.17,22.53-23.31-9.27-23.31-22.56S427.67,413.75,441.48,413.75Zm.09,35.25c7.37,0,12.3-5.22,12.3-12.78s-4.93-12.65-12.3-12.65S429,428.72,429,436.22,434.07,449,441.57,449Z"/><path class="cls-1" d="M503,458.11H470.2V414.4h10.59v34.82H503Z"/><path class="cls-1" d="M505.35,414.4h10.59v27.39c0,5.44,3.77,7.79,8.66,7.79,5.21,0,8.69-2.58,8.69-7.79V414.4h10.59v28c0,11.55-9.21,16.38-19.28,16.38-10.91,0-19.25-5.25-19.25-16.38Z"/><path class="cls-1" d="M560.85,423.5H547.91v-9.1h36.4v9.1h-12.9v34.61H560.85Z"/><path class="cls-1" d="M599.19,458.11H588.6V414.4h10.59Z"/><path class="cls-1" d="M628,413.75c13.75,0,23.18,9.24,23.18,22.47s-9.43,22.53-23.18,22.53-23.3-9.27-23.3-22.56S614.23,413.75,628,413.75Zm.1,35.25c7.37,0,12.3-5.22,12.3-12.78s-4.93-12.65-12.3-12.65-12.62,5.15-12.62,12.65S620.63,449,628.13,449Z"/><path class="cls-1" d="M667.34,458.11H656.75V414.4h9l22.37,26.65V414.4h10.59v43.71h-9.18l-22.21-26.4Z"/><path class="cls-1" d="M736.27,416.81l-.87,9c-1.58-1-8.18-3-13.39-3-3.74,0-6.76,1-6.76,3.93,0,2.7,2.57,3.38,5.08,4.09l6.25,1.8c8,2.32,12,5.63,12,12.52,0,8-6.76,13.52-17.42,13.52-6.44,0-13.65-1.8-16.51-3.41l.84-9.3c1.09,1.19,8.91,3.44,14.93,3.44,4,0,7.28-1,7.28-3.89,0-2-1.39-3.06-4.57-3.9L716.34,440c-5.82-1.9-11.94-4.76-11.94-12.61,0-8.15,6.82-13.59,17.16-13.59A33,33,0,0,1,736.27,416.81Z"/><path class="cls-2" d="M95.92,393.33H61.38V471.1H95.92c25,0,39.89-13.43,39.89-39.06S121.62,393.33,95.92,393.33ZM94.27,456H80.21V408.47H94.27q22.86,0,22.85,23.57C117.12,447.22,109.86,456,94.27,456Z"/><path class="cls-2" d="M255.44,392.1v80.23h18.22V392.1Z"/><path class="cls-2" d="M283.34,392.1v15.5h23.75v64.73h18.15V407.6h23.69V392.1Z"/><path class="cls-1" d="M224.82,417.52c-.37-.94-.77-1.88-1.2-2.79a40.95,40.95,0,0,0-74.06,0c-.5,1-.95,2.11-1.36,3.2a41,41,0,1,0,76.62-.41ZM208.54,433.8a22,22,0,1,1,.06-1.58C208.6,432.75,208.58,433.28,208.54,433.8Z"/><path class="cls-1" d="M245.9,388.79l-12.71,14.8a55.79,55.79,0,0,0-93.21,0l-12.7-14.79a74.71,74.71,0,0,1,118.62,0Z"/><path class="cls-1" d="M267.39,363.77l-12.5,14.56a87.92,87.92,0,0,0-136.6,0l-12.5-14.56a106.82,106.82,0,0,1,161.6,0Z"/></svg>